<svg fill="none" height="24" viewBox="0 0 24 24" width="24" xmlns="http://www.w3.org/2000/svg"><g fill="currentColor"><path d="m14.4294 16.9203h-2.2899c-.41 0-.75-.34-.75-.75s.34-.75.75-.75h2.2899c.43 0 .7801-.35.7801-.78s-.3501-.78-.7801-.78h-2.2899c-.24 0-.47-.12-.61-.31s-.1801-.45-.1001-.68l.76-2.29c.1-.31.3901-.51.7101-.51h3.06c.41 0 .75.34.75.75s-.34.75-.75.75h-2.5201l-.26.79h1.25c1.26 0 2.2801 1.02 2.2801 2.28s-1.0301 2.28-2.2801 2.28z"/><path d="m9.53955 16.9198c-.41 0-.75-.34-.75-.75v-3.3899l-.19.2199c-.28.31-.75.33-1.06.06-.31-.28-.33-.75-.06-1.06l1.5-1.67c.21-.23.54002-.31.83002-.2.29003.11.47993.39.47993.7v5.35c0 .41-.32995.74-.74995.74z"/><path d="m10.02 5.21993c-.17 0-.33003-.04998-.47003-.16998-.32-.26-.36999-.72999-.11999-1.04999l1.98002-2.46997c.26-.32.73-.37006 1.05-.12006s.37.73005.12 1.05005l-1.98 2.46997c-.14.19-.36.28998-.58.28998z"/><path d="m11.9994 22.7498c-5.31001 0-9.64002-4.3201-9.64002-9.6401 0-2.07.67001-4.05997 1.95001-5.75997.25-.33.71999-.39996 1.04999-.14996.32999.25.40002.71999.15002 1.04999-1.08 1.44-1.65002 3.11994-1.65002 4.85994 0 4.49 3.65001 8.1401 8.14002 8.1401 4.49 0 8.14-3.6501 8.14-8.1401 0-4.48996-3.65-8.13997-8.14-8.13997-.58 0-1.17.07003-1.81.22003-.41001.09-.81003-.16-.90003-.56s.16-.81002.56-.90002c.75003-.17 1.46003-.26001 2.15003-.26001 5.31 0 9.64 4.32001 9.64 9.63997 0 5.32-4.33 9.6401-9.64 9.6401z"/></g></svg>