<svg fill="none" height="24" viewBox="0 0 24 24" width="24" xmlns="http://www.w3.org/2000/svg"><g fill="currentColor"><path d="m14.4294 16.9203h-2.2899c-.41 0-.75-.34-.75-.75s.34-.75.75-.75h2.2899c.43 0 .7801-.35.7801-.78s-.3501-.78-.7801-.78h-2.2899c-.24 0-.47-.12-.61-.31s-.1801-.45-.1001-.68l.76-2.29c.1-.31.3901-.51.7101-.51h3.06c.41 0 .75.34.75.75s-.34.75-.75.75h-2.5201l-.26.79h1.25c1.26 0 2.2801 1.02 2.2801 2.28s-1.0301 2.28-2.2801 2.28z"/><path d="m9.53955 16.9198c-.41 0-.75-.34-.75-.75v-3.3899l-.19.2199c-.28.31-.75.33-1.06.06-.31-.28-.33-.75-.06-1.06l1.5-1.67c.21-.23.54002-.31.83002-.2.29003.11.47993.39.47993.7v5.35c0 .41-.32995.74-.74995.74z"/><path d="m13.9797 5.21973c-.22 0-.4399-.09997-.5799-.27997l-1.9801-2.47003c-.26-.32-.21-.79999.12-1.04999.32-.26.7901-.21001 1.0501.11999l1.98 2.47004c.26.32.21.79998-.12 1.04998-.14.1-.3101.15998-.4701.15998z"/><path d="m11.9994 22.7498c-5.31001 0-9.64002-4.3201-9.64002-9.6401 0-5.31996 4.32001-9.63997 9.64002-9.63997.69 0 1.39.08001 2.15.26001.4.09.66.50002.56.90002-.09.4-.5.66-.9.56-.64-.15-1.24-.22003-1.81-.22003-4.49001 0-8.14002 3.65001-8.14002 8.13997 0 4.49 3.65001 8.1401 8.14002 8.1401 4.49 0 8.14-3.6501 8.14-8.1401 0-1.74-.57-3.41994-1.65-4.85994-.25-.33-.18-.79999.15-1.04999s.8-.18004 1.05.14996c1.28 1.7 1.95 3.68997 1.95 5.75997 0 5.32-4.33 9.6401-9.64 9.6401z"/></g></svg>