<svg width="41" height="40" viewBox="0 0 41 40" fill="currentColor" xmlns="http://www.w3.org/2000/svg" role="img">
<title>Github icon</title>
<path d="M20.5 0C17.8079 0 15.1422 0.530159 12.655 1.56021C10.1678 2.59025 7.90791 4.10002 6.00431 6.0033C2.15982 9.84714 0 15.0605 0 20.4965C0 29.556 5.8835 37.2422 14.022 39.9683C15.047 40.1322 15.375 39.4968 15.375 38.9434V35.4795C9.6965 36.7093 8.487 32.733 8.487 32.733C7.544 30.3554 6.2115 29.72 6.2115 29.72C4.346 28.4492 6.355 28.4902 6.355 28.4902C8.405 28.6337 9.4915 30.6013 9.4915 30.6013C11.275 33.7168 14.2885 32.7945 15.457 32.3025C15.6415 30.9703 16.1745 30.0684 16.7485 29.556C12.1975 29.0436 7.421 27.2809 7.421 19.4717C7.421 17.1966 8.2 15.3724 9.5325 13.9172C9.3275 13.4047 8.61 11.2731 9.7375 8.50606C9.7375 8.50606 11.4595 7.95266 15.375 10.5967C16.9945 10.1458 18.7575 9.92033 20.5 9.92033C22.2425 9.92033 24.0055 10.1458 25.625 10.5967C29.5405 7.95266 31.2625 8.50606 31.2625 8.50606C32.39 11.2731 31.6725 13.4047 31.4675 13.9172C32.8 15.3724 33.579 17.1966 33.579 19.4717C33.579 27.3014 28.782 29.0231 24.2105 29.5355C24.9485 30.1709 25.625 31.4212 25.625 33.3274V38.9434C25.625 39.4968 25.953 40.1527 26.9985 39.9683C35.137 37.2217 41 29.556 41 20.4965C41 17.8049 40.4698 15.1396 39.4395 12.6529C38.4093 10.1661 36.8993 7.90658 34.9957 6.0033C33.0921 4.10002 30.8322 2.59025 28.345 1.56021C25.8578 0.530159 23.1921 0 20.5 0Z" fill="currentColor"/>
</svg>
