<svg width="41" height="41" viewBox="0 0 41 41" fill="currentColor" xmlns="http://www.w3.org/2000/svg" role="img">
<title>LinkedIn logo</title>
<path d="M36.4444 0C37.6527 0 38.8114 0.479959 39.6657 1.33429C40.52 2.18862 41 3.34735 41 4.55556V36.4444C41 37.6527 40.52 38.8114 39.6657 39.6657C38.8114 40.52 37.6527 41 36.4444 41H4.55556C3.34735 41 2.18862 40.52 1.33429 39.6657C0.479959 38.8114 0 37.6527 0 36.4444V4.55556C0 3.34735 0.479959 2.18862 1.33429 1.33429C2.18862 0.479959 3.34735 0 4.55556 0H36.4444ZM35.3056 35.3056V23.2333C35.3056 21.264 34.5232 19.3752 33.1307 17.9827C31.7381 16.5901 29.8494 15.8078 27.88 15.8078C25.9439 15.8078 23.6889 16.9922 22.5956 18.7689V16.2406H16.2406V35.3056H22.5956V24.0761C22.5956 22.3222 24.0078 20.8872 25.7617 20.8872C26.6074 20.8872 27.4185 21.2232 28.0166 21.8212C28.6146 22.4193 28.9506 23.2304 28.9506 24.0761V35.3056H35.3056ZM8.83778 12.6644C9.85267 12.6644 10.826 12.2613 11.5436 11.5436C12.2613 10.826 12.6644 9.85267 12.6644 8.83778C12.6644 6.71944 10.9561 4.98833 8.83778 4.98833C7.81684 4.98833 6.83772 5.3939 6.11581 6.11581C5.3939 6.83772 4.98833 7.81684 4.98833 8.83778C4.98833 10.9561 6.71944 12.6644 8.83778 12.6644ZM12.0039 35.3056V16.2406H5.69444V35.3056H12.0039Z" fill="currentColor"/>
</svg>
