<svg width="128" height="168" viewBox="0 0 128 168" fill="currentColor" xmlns="http://www.w3.org/2000/svg">
<path d="M16 168C11.6 168 7.83333 166.433 4.7 163.3C1.56667 160.167 0 156.4 0 152V72C0 67.6 1.56667 63.8333 4.7 60.7C7.83333 57.5667 11.6 56 16 56H24V40C24 28.9333 27.9 19.5 35.7 11.7C43.5 3.9 52.9333 0 64 0C75.0667 0 84.5 3.9 92.3 11.7C100.1 19.5 104 28.9333 104 40V56H112C116.4 56 120.167 57.5667 123.3 60.7C126.433 63.8333 128 67.6 128 72V152C128 156.4 126.433 160.167 123.3 163.3C120.167 166.433 116.4 168 112 168H16ZM16 152H112V72H16V152ZM64 128C68.4 128 72.1667 126.433 75.3 123.3C78.4333 120.167 80 116.4 80 112C80 107.6 78.4333 103.833 75.3 100.7C72.1667 97.5667 68.4 96 64 96C59.6 96 55.8333 97.5667 52.7 100.7C49.5667 103.833 48 107.6 48 112C48 116.4 49.5667 120.167 52.7 123.3C55.8333 126.433 59.6 128 64 128ZM40 56H88V40C88 33.3333 85.6667 27.6667 81 23C76.3333 18.3333 70.6667 16 64 16C57.3333 16 51.6667 18.3333 47 23C42.3333 27.6667 40 33.3333 40 40V56Z" fill="currentColor"/>
</svg>
