<svg width="41" height="41" viewBox="0 0 41 41" fill="currentColor" xmlns="http://www.w3.org/2000/svg" role="img">
<title>Spotify Icon</title>
<path d="M32.595 18.245C26.035 14.35 15.0675 13.94 8.815 15.8875C7.79 16.195 6.765 15.58 6.4575 14.6575C6.15 13.6325 6.765 12.6075 7.6875 12.3C14.965 10.1475 26.9575 10.5575 34.5425 15.0675C35.465 15.58 35.7725 16.81 35.26 17.7325C34.7475 18.45 33.5175 18.7575 32.595 18.245ZM32.39 23.985C31.8775 24.7025 30.955 25.01 30.2375 24.4975C24.7025 21.115 16.2975 20.09 9.84 22.14C9.02 22.345 8.0975 21.935 7.8925 21.115C7.6875 20.295 8.0975 19.3725 8.9175 19.1675C16.4 16.9125 25.625 18.04 31.98 21.935C32.595 22.2425 32.9025 23.2675 32.39 23.985ZM29.93 29.6225C29.52 30.2375 28.8025 30.4425 28.1875 30.0325C23.37 27.06 17.3225 26.445 10.1475 28.085C9.43 28.29 8.815 27.7775 8.61 27.1625C8.405 26.445 8.9175 25.83 9.5325 25.625C17.3225 23.8825 24.0875 24.6 29.4175 27.88C30.135 28.1875 30.2375 29.0075 29.93 29.6225ZM20.5 0C17.8079 0 15.1422 0.530248 12.655 1.56047C10.1678 2.59069 7.90791 4.10071 6.00431 6.00431C2.15982 9.84881 0 15.0631 0 20.5C0 25.9369 2.15982 31.1512 6.00431 34.9957C7.90791 36.8993 10.1678 38.4093 12.655 39.4395C15.1422 40.4698 17.8079 41 20.5 41C25.9369 41 31.1512 38.8402 34.9957 34.9957C38.8402 31.1512 41 25.9369 41 20.5C41 17.8079 40.4698 15.1422 39.4395 12.655C38.4093 10.1678 36.8993 7.90791 34.9957 6.00431C33.0921 4.10071 30.8322 2.59069 28.345 1.56047C25.8578 0.530248 23.1921 0 20.5 0Z" fill="currentColor"/>
</svg>
