<svg width="41" height="41" viewBox="0 0 41 41" fill="currentColor" xmlns="http://www.w3.org/2000/svg" role="img">
<title>Stack Overflow logo</title>
<path d="M4.39286 0C1.96763 0 0 1.96763 0 4.39286V36.6071C0 39.0324 1.96763 41 4.39286 41H36.6071C39.0324 41 41 39.0324 41 36.6071V4.39286C41 1.96763 39.0324 0 36.6071 0H4.39286ZM25.0821 5.85714L32.8602 16.3405L30.7637 17.896L22.9858 7.41267L25.0821 5.85714ZM20.2467 10.0507L30.2903 18.4033L28.6329 20.3987L18.5896 12.0453L20.2467 10.0507ZM16.3913 15.4613L28.2276 21.0069L27.1456 23.3742L15.3096 17.8623L16.3913 15.4613ZM14.1596 21.3795L26.9423 24.0505L26.4012 26.6213L13.6188 23.9493L14.1596 21.3795ZM8.1396 24.6933H10.7442V32.5394H29.0392V24.6933H31.6428V35.1429H8.1396V24.6933ZM13.3478 27.2976H26.401V29.9013H13.3479L13.3478 27.2976Z" fill="currentColor"/>
</svg>
